<?xml version="1.0" encoding="UTF-8"?>
<svg width="20px" height="19px" viewBox="0 0 20 19" version="1.1" xmlns="http://www.w3.org/2000/svg" xmlns:xlink="http://www.w3.org/1999/xlink">
    <!-- Generator: Sketch 50 (54983) - http://www.bohemiancoding.com/sketch -->
    <title>Shape</title>
    <desc>Created with Sketch.</desc>
    <defs></defs>
    <g id="Page-1" stroke="none" stroke-width="1" fill="none" fill-rule="evenodd">
        <g id="Desktop-HD-Copy-39" transform="translate(-366.000000, -96.000000)" fill="#91C5FF" fill-rule="nonzero">
            <g id="Group-13" transform="translate(366.000000, 88.000000)">
                <path d="M1.06313215,18.7073796 L2.07476886,18.7073796 C2.30341884,18.7073796 2.48968491,18.8880538 2.48968491,19.1098394 L2.48968491,25.8748434 C2.48968491,26.4947614 3.0105607,27 3.64966526,27 L6.88980268,27 C7.52890724,27 8.04978304,26.4947614 8.04978304,25.8748434 L8.04978304,22.3901036 C8.04978304,22.1077326 8.28624057,21.8783738 8.57846639,21.8783738 L11.4215336,21.8783738 C11.7126441,21.8783738 11.9491016,22.1077326 11.9491016,22.3901036 L11.9491016,25.8748434 C11.9491016,26.4947614 12.4699774,27 13.1090819,27 L16.3492194,27 C16.9883239,27 17.5091997,26.4947614 17.5091997,25.8748434 L17.5091997,19.1098394 C17.5091997,18.8880538 17.6954658,18.7073796 17.9241158,18.7073796 L18.9368678,18.7073796 C19.3696297,18.7073796 19.7432773,18.4672019 19.9128129,18.0809703 C20.0823484,17.6947386 20.0009267,17.2663136 19.7008934,16.9644687 L11.3791497,8.57015146 C11.0155405,8.20231181 10.5247796,8 9.99944232,8 C9.47410506,8 8.98334414,8.20231181 8.61973492,8.57015146 L0.299106635,16.9644687 C-0.000926743901,17.2673955 -0.0823484416,17.6947386 0.0871871481,18.0809703 C0.256722738,18.4672019 0.630370255,18.7073796 1.06313215,18.7073796 Z" id="Shape"></path>
            </g>
        </g>
    </g>
</svg>