<?xml version="1.0" encoding="UTF-8"?>
<svg width="22px" height="22px" viewBox="0 0 22 22" version="1.1" xmlns="http://www.w3.org/2000/svg" xmlns:xlink="http://www.w3.org/1999/xlink">
    <!-- Generator: Sketch 50 (54983) - http://www.bohemiancoding.com/sketch -->
    <title>Group 6</title>
    <desc>Created with Sketch.</desc>
    <defs></defs>
    <g id="Page-1" stroke="none" stroke-width="1" fill="none" fill-rule="evenodd">
        <g id="iPhone-8-Copy-9" transform="translate(-325.000000, -124.000000)" fill="#0C2C5A" fill-rule="nonzero">
            <g id="Group-2" transform="translate(-12.000000, 0.000000)">
                <g id="Group-5" transform="translate(337.000000, 124.000000)">
                    <g id="Group-6">
                        <path d="M17.583399,10.9988023 C17.583399,11.3269212 17.559789,11.6574007 17.517291,11.9831591 C17.526735,11.9194237 17.533818,11.858049 17.543262,11.7943136 C17.455905,12.4269458 17.2882738,13.0454146 17.0427297,13.633196 C17.0663397,13.5765423 17.0899497,13.5198887 17.1135597,13.4632351 C16.9718996,13.7984357 16.8066295,14.1241941 16.6153884,14.435789 C16.5185873,14.5939471 16.4147032,14.7497446 16.3060972,14.9008209 C16.2824872,14.9338688 16.2565161,14.9669168 16.2329061,14.9999647 C16.2211011,15.0164887 16.2069351,15.0330127 16.1951301,15.0495367 C16.1313831,15.1345171 16.2494331,14.9763591 16.2494331,14.9787196 C16.2399891,15.009407 16.1927691,15.0495367 16.1715201,15.0755029 C16.1384661,15.1156326 16.105412,15.1557622 16.072358,15.1958919 C15.8386189,15.4720783 15.5859917,15.7293802 15.3144765,15.9677976 C15.2436465,16.0291723 15.1728164,16.0881865 15.1019864,16.1472007 C15.0689323,16.173167 15.0382393,16.1991332 15.0051853,16.2250994 C14.9674093,16.2557868 14.9013012,16.3006376 15.0760153,16.1708064 C15.0500443,16.1896909 15.0264343,16.2085755 15.0028243,16.22746 C14.8611642,16.3336856 14.7171431,16.4328294 14.5684,16.5272521 C14.2166108,16.7515061 13.8482945,16.9450726 13.4634512,17.1079518 C13.5201153,17.0843461 13.5767793,17.0607405 13.6334434,17.0371348 C13.043193,17.2826338 12.4269715,17.4502341 11.7942231,17.5375752 C11.8579702,17.5281329 11.9193562,17.5210512 11.9831032,17.5116089 C11.3291058,17.5989499 10.6680254,17.5989499 10.0140279,17.5116089 C10.077775,17.5210512 10.139161,17.5281329 10.202908,17.5375752 C9.57015961,17.4502341 8.95157719,17.2826338 8.36368779,17.0371348 C8.42035183,17.0607405 8.47701587,17.0843461 8.5336799,17.1079518 C8.19841768,16.9663177 7.87259946,16.801078 7.56094724,16.609872 C7.40276014,16.5130887 7.24693403,16.4092237 7.09582993,16.3006376 C7.06277591,16.2770319 7.02972188,16.2510657 6.99666786,16.22746 C6.98014085,16.2156572 6.96361384,16.2014938 6.94708683,16.1896909 C6.86209077,16.1259556 7.02027788,16.243984 7.01791688,16.243984 C6.98722386,16.2345417 6.94708683,16.1873304 6.92111581,16.1660852 C6.88097878,16.1330373 6.84084176,16.0999893 6.80070473,16.0669414 C6.52446754,15.8332452 6.26711837,15.5806644 6.02865721,15.3091991 C5.96727116,15.2383821 5.90824612,15.1675651 5.84922108,15.096748 C5.82325007,15.0637001 5.79727905,15.0330127 5.77130803,14.9999647 C5.74061501,14.9621957 5.69575598,14.8960998 5.82561107,15.0707818 C5.80672306,15.0448155 5.78783504,15.0212099 5.76894703,14.9976042 C5.66270196,14.8559701 5.56353989,14.7119755 5.46909983,14.5632597 C5.24480467,14.2115351 5.05120254,13.8432865 4.88829343,13.458514 C4.91190345,13.5151676 4.93551346,13.5718212 4.95912348,13.6284748 C4.71357931,13.0383329 4.5459482,12.4222247 4.45859114,11.7895925 C4.46803515,11.8533278 4.47511815,11.9147026 4.48456216,11.9784379 C4.3972051,11.3245606 4.3972051,10.6636017 4.48456216,10.0097244 C4.47511815,10.0734597 4.46803515,10.1348345 4.45859114,10.1985698 C4.5459482,9.56593762 4.71357931,8.94746885 4.95912348,8.35968747 C4.93551346,8.41634109 4.91190345,8.47299472 4.88829343,8.52964835 C5.02995353,8.19444772 5.19522364,7.86868936 5.38646477,7.55709441 C5.48326584,7.39893636 5.58714991,7.24313889 5.69575598,7.09206255 C5.719366,7.0590146 5.74533701,7.02596665 5.76894703,6.9929187 C5.78075204,6.97639472 5.79491805,6.95987075 5.80672306,6.94334677 C5.8704701,6.85836633 5.75242002,7.01652438 5.75242002,7.01416381 C5.76186402,6.98347643 5.80908406,6.94334677 5.83033307,6.91738053 C5.86338709,6.87725088 5.89644112,6.83712122 5.92949514,6.79699157 C6.1632343,6.52080513 6.41586147,6.26350324 6.68737665,6.02508589 C6.7582067,5.96371113 6.82903675,5.90469693 6.8998668,5.84568274 C6.93292082,5.81971649 6.96361384,5.79375025 6.99666786,5.767784 C7.03444389,5.73709662 7.10055193,5.69224583 6.92583781,5.82207706 C6.95180883,5.80319252 6.97541885,5.78430797 6.99902886,5.76542343 C7.14068896,5.65919788 7.28471006,5.56005403 7.43345316,5.46563132 C7.7852424,5.24137738 8.15355865,5.04781081 8.53840191,4.88493164 C8.48173787,4.90853731 8.42507383,4.93214299 8.36840979,4.95574867 C8.95866019,4.71024962 9.57488161,4.5426493 10.20763,4.45530829 C10.143883,4.46475056 10.082497,4.47183227 10.0187499,4.48127454 C10.6727474,4.39393353 11.3338278,4.39393353 11.9878252,4.48127454 C11.9240782,4.47183227 11.8626922,4.46475056 11.7989451,4.45530829 C12.4316935,4.5426493 13.050276,4.71024962 13.6381654,4.95574867 C13.5815013,4.93214299 13.5248373,4.90853731 13.4681732,4.88493164 C13.8034355,5.0265657 14.1292537,5.19180545 14.4409059,5.38301145 C14.599093,5.47979473 14.7549191,5.58365971 14.9060232,5.69224583 C14.9390772,5.71585151 14.9721313,5.74181775 15.0051853,5.76542343 C15.0217123,5.77722627 15.0382393,5.79138968 15.0547663,5.80319252 C15.1397624,5.86692785 14.9815753,5.74889946 14.9839363,5.74889946 C15.0146293,5.75834173 15.0547663,5.80555309 15.0807373,5.8267982 C15.1208744,5.85984615 15.1610114,5.89289409 15.2011484,5.92594204 C15.4773856,6.15963826 15.7347348,6.41221901 15.9731959,6.68368431 C16.034582,6.75450135 16.093607,6.82531838 16.1526321,6.89613542 C16.1786031,6.92918337 16.2045741,6.95987075 16.2305451,6.9929187 C16.2612381,7.03068778 16.3060972,7.09678368 16.1762421,6.92210166 C16.1951301,6.94806791 16.2140181,6.97167359 16.2329061,6.99527927 C16.3391512,7.13691334 16.4383133,7.28090797 16.5327533,7.42962375 C16.7570485,7.78134835 16.9506506,8.14959693 17.1135597,8.53436949 C17.0899497,8.47771586 17.0663397,8.42106223 17.0427297,8.3644086 C17.2882738,8.95455056 17.455905,9.57065876 17.543262,10.2032909 C17.533818,10.1395556 17.526735,10.0781808 17.517291,10.0144455 C17.56215,10.3402039 17.583399,10.6706834 17.583399,10.9988023 C17.583399,11.3694114 17.9092173,11.7234966 18.2916995,11.7069726 C18.6741818,11.6904487 19,11.3953777 19,10.9988023 C18.995278,9.37001049 18.4971067,7.73413699 17.547984,6.40513731 C16.5846954,5.05725309 15.2601735,4.04220892 13.7042734,3.47095151 C12.1578174,2.90205467 10.4059542,2.85248274 8.8217221,3.30099063 C7.28943206,3.73533511 5.8775531,4.63943258 4.86468342,5.87164898 C3.79514969,7.17232185 3.15295726,8.74209945 3.02310217,10.4228237 C2.89560808,12.0516155 3.29933936,13.7299793 4.14693893,15.1274354 C4.96620649,16.4824013 6.20101032,17.6083922 7.6483043,18.2622695 C8.45104485,18.6234363 9.2726734,18.8500509 10.146244,18.9515553 C10.9796776,19.0483386 11.8296381,18.9964061 12.6512667,18.8288057 C14.2071668,18.5124897 15.6686267,17.6910121 16.7664925,16.5484972 C17.8761632,15.391819 18.6482108,13.8904979 18.8913939,12.3041963 C18.957502,11.8722124 19,11.4402285 19,11.0035234 C19,10.6329143 18.6741818,10.2788291 18.2916995,10.2953531 C17.9092173,10.3071559 17.58576,10.6022269 17.583399,10.9988023 Z" id="Shape"></path>
                        <path d="M11.5,3.33885941 C11.5,2.55712406 11.5,1.77759079 11.5,0.995855443 C11.5,0.883549802 11.5,0.771244161 11.5,0.661140591 C11.5,0.315415382 11.155,-0.0148953275 10.75,0.000519172305 C10.3425,0.0159336721 10,0.291192597 10,0.661140591 C10,1.44287594 10,2.22240921 10,3.00414456 C10,3.1164502 10,3.22875584 10,3.33885941 C10,3.68458462 10.345,4.01489533 10.75,3.99948083 C11.1575,3.98186426 11.5,3.7088074 11.5,3.33885941 Z" id="Shape"></path>
                        <path d="M11.5,21.3388594 C11.5,20.5571241 11.5,19.7775908 11.5,18.9958554 C11.5,18.8835498 11.5,18.7712442 11.5,18.6611406 C11.5,18.3154154 11.155,17.9851047 10.75,18.0005192 C10.3425,18.0159337 10,18.2911926 10,18.6611406 C10,19.4428759 10,20.2224092 10,21.0041446 C10,21.1164502 10,21.2287558 10,21.3388594 C10,21.6845846 10.345,22.0148953 10.75,21.9994808 C11.1575,21.9840663 11.5,21.7088074 11.5,21.3388594 Z" id="Shape"></path>
                        <path d="M3.33885941,10 C2.55712406,10 1.77759079,10 0.995855443,10 C0.883549802,10 0.771244161,10 0.661140591,10 C0.315415382,10 -0.0148953275,10.345 0.000519172305,10.75 C0.0159336721,11.1575 0.291192597,11.5 0.661140591,11.5 C1.44287594,11.5 2.22240921,11.5 3.00414456,11.5 C3.1164502,11.5 3.22875584,11.5 3.33885941,11.5 C3.68458462,11.5 4.01489533,11.155 3.99948083,10.75 C3.98186426,10.3425 3.7088074,10 3.33885941,10 Z" id="Shape"></path>
                        <path d="M21.3388594,10 C20.5571241,10 19.7775908,10 18.9958554,10 C18.8835498,10 18.7712442,10 18.6611406,10 C18.3154154,10 17.9851047,10.345 18.0005192,10.75 C18.0159337,11.1575 18.2911926,11.5 18.6611406,11.5 C19.4428759,11.5 20.2224092,11.5 21.0041446,11.5 C21.1164502,11.5 21.2287558,11.5 21.3388594,11.5 C21.6845846,11.5 22.0148953,11.155 21.9994808,10.75 C21.9840663,10.3425 21.7088074,10 21.3388594,10 Z" id="Shape"></path>
                        <path d="M12.5329202,11.0027751 C12.5329202,11.1054484 12.525597,11.2056771 12.5133918,11.3083504 C12.523156,11.2423461 12.5304791,11.1787865 12.5402433,11.1127822 C12.5133918,11.3083504 12.4621299,11.4990294 12.3864576,11.6823746 C12.410868,11.6237041 12.4352784,11.5650337 12.4596889,11.5063632 C12.4059859,11.6359271 12.3400778,11.7581572 12.2619644,11.8754982 C12.2522002,11.8901658 12.2033794,11.9806161 12.1887331,11.9806161 C12.2058204,11.9806161 12.3205494,11.8143831 12.2253487,11.931724 C12.18141,11.9855053 12.1350302,12.0368419 12.0862093,12.085734 C12.0373884,12.134626 11.9861265,12.1810734 11.9324236,12.2250763 C11.8860438,12.2641899 11.7932841,12.3106374 11.9812444,12.1884073 C11.9495109,12.2079641 11.9202184,12.2324101 11.8884848,12.2519669 C11.7688737,12.3326388 11.6394984,12.4010877 11.5052411,12.4573135 C11.5638261,12.4328675 11.6224111,12.4084215 11.6809962,12.3839754 C11.4979179,12.4597581 11.3075166,12.5110948 11.1122331,12.5379854 C11.1781413,12.528207 11.2416084,12.5208732 11.3075166,12.5110948 C11.10491,12.5379854 10.9023034,12.5379854 10.6972558,12.5110948 C10.763164,12.5208732 10.8266311,12.528207 10.8925393,12.5379854 C10.6972558,12.5110948 10.5068545,12.4597581 10.3237762,12.3839754 C10.3823613,12.4084215 10.4409463,12.4328675 10.4995313,12.4573135 C10.3701561,12.4035323 10.2481039,12.337528 10.1309339,12.2593007 C10.1162876,12.2495223 10.025969,12.2006303 10.025969,12.1859627 C10.025969,12.2030749 10.1919599,12.3179712 10.0747899,12.2226317 C10.0210869,12.1786288 9.96982501,12.1321814 9.92100415,12.0832894 C9.87218329,12.0343973 9.82580348,11.9830607 9.7818647,11.9292794 C9.74280802,11.882832 9.6964282,11.7899371 9.81848035,11.9781715 C9.798952,11.9463916 9.77454157,11.9170564 9.75501323,11.8852766 C9.67445881,11.765491 9.60610961,11.6359271 9.54996562,11.501474 C9.57437605,11.5601444 9.59878648,11.6188149 9.62319691,11.6774854 C9.54752458,11.4941402 9.49626267,11.3034612 9.4694112,11.107893 C9.47917537,11.1738973 9.4864985,11.2374569 9.49626267,11.3034612 C9.4694112,11.1005592 9.4694112,10.8976572 9.49626267,10.6923106 C9.4864985,10.7583149 9.47917537,10.8218745 9.4694112,10.8878788 C9.49626267,10.6923106 9.54752458,10.5016316 9.62319691,10.3182864 C9.59878648,10.3769569 9.57437605,10.4356274 9.54996562,10.4942978 C9.60366856,10.3647339 9.66957673,10.2425038 9.7476901,10.1251629 C9.75745427,10.1104952 9.80627513,10.020045 9.82092139,10.020045 C9.80383409,10.020045 9.68910507,10.1862779 9.78430575,10.068937 C9.82824452,10.0151558 9.87462434,9.9638191 9.9234452,9.91492706 C9.97226606,9.86603501 10.023528,9.81958756 10.0772309,9.77558472 C10.1236107,9.73647108 10.2163704,9.69002364 10.02841,9.81225376 C10.0601436,9.79269694 10.0894361,9.76825091 10.1211697,9.74869409 C10.2407808,9.66802222 10.3701561,9.59957335 10.5044134,9.5433475 C10.4458284,9.56779352 10.3872434,9.59223954 10.3286583,9.61668557 C10.5117366,9.54090289 10.7021379,9.48956624 10.8974214,9.46267562 C10.8315132,9.47245403 10.7680461,9.47978783 10.7021379,9.48956624 C10.9047445,9.46267562 11.1073511,9.46267562 11.3123987,9.48956624 C11.2464905,9.47978783 11.1830234,9.47245403 11.1171152,9.46267562 C11.3123987,9.48956624 11.5028,9.54090289 11.6858782,9.61668557 C11.6272932,9.59223954 11.5687082,9.56779352 11.5101231,9.5433475 C11.6394984,9.59712875 11.7615506,9.66313301 11.8787206,9.74136029 C11.8933669,9.7511387 11.9836855,9.80003074 11.9836855,9.81469836 C11.9836855,9.79758614 11.8176946,9.68268983 11.9348646,9.77802932 C11.9885676,9.82203217 12.0398295,9.86847961 12.0886503,9.91737166 C12.1374712,9.96626371 12.183851,10.0176004 12.2277898,10.0713816 C12.2668465,10.1178291 12.3132263,10.2107239 12.1911741,10.0224896 C12.2107025,10.0542694 12.2351129,10.0836046 12.2546413,10.1153844 C12.3351957,10.23517 12.4035449,10.3647339 12.4596889,10.499187 C12.4352784,10.4405166 12.410868,10.3818461 12.3864576,10.3231757 C12.4621299,10.5065208 12.5133918,10.6971998 12.5402433,10.892768 C12.5304791,10.8267637 12.523156,10.7632041 12.5133918,10.6971998 C12.525597,10.7998731 12.5329202,10.9001018 12.5329202,11.0027751 C12.5353612,11.3865777 12.8673431,11.753268 13.2652331,11.7361558 C13.660682,11.7190436 13.999987,11.4134683 13.997546,11.0027751 C13.9926639,10.4087367 13.8217909,9.79269694 13.4727217,9.30866567 C13.089478,8.77574235 12.5939462,8.39438439 11.9788034,8.16703637 C10.8583647,7.75389857 9.47185224,8.12792273 8.720011,9.05931623 C8.3001516,9.57757193 8.05848835,10.1667211 8.00722644,10.8340975 C7.96328767,11.4183575 8.12195546,12.0368419 8.42220375,12.5379854 C8.71756996,13.0317951 9.16916291,13.4669343 9.6964282,13.7065053 C10.3140121,13.9876346 10.9633295,14.0707511 11.6321753,13.9387425 C13.0040415,13.6698363 13.9902228,12.3815308 13.999987,11.0052197 C14.002428,10.6214171 13.660682,10.2547268 13.2676741,10.271839 C12.8673431,10.2865066 12.5378022,10.5920819 12.5329202,11.0027751 Z" id="Shape"></path>
                    </g>
                </g>
            </g>
        </g>
    </g>
</svg>